<?xml version="1.0" encoding="UTF-8"?>
<svg fill="none" viewBox="0 0 38 30" xmlns="http://www.w3.org/2000/svg">
<g clip-path="url(#a)">
<path d="m6.8678 29.851v-1.9856c0-0.7612-0.45354-1.2576-1.231-1.2576-0.38874 0-0.80988 0.1324-1.1014 0.5626-0.22677-0.364-0.55072-0.5626-1.0366-0.5626-0.32395 0-0.6479 0.0993-0.90706 0.4633v-0.3971h-0.6803v3.177h0.6803v-1.7539c0-0.5626 0.29155-0.8274 0.74508-0.8274 0.45354 0 0.6803 0.2979 0.6803 0.8274v1.7539h0.6803v-1.7539c0-0.5626 0.32395-0.8274 0.74509-0.8274 0.45353 0 0.6803 0.2979 0.6803 0.8274v1.7539h0.74509zm10.075-3.177h-1.1015v-0.9597h-0.6803v0.9597h-0.6155v0.6288h0.6155v1.4561c0 0.7281 0.2916 1.1583 1.0691 1.1583 0.2915 0 0.6155-0.0992 0.8422-0.2316l-0.1943-0.5957c-0.1944 0.1324-0.4212 0.1655-0.5831 0.1655-0.324 0-0.4536-0.1986-0.4536-0.5296v-1.423h1.1015v-0.6288zm5.7663-0.0662c-0.3887 0-0.6479 0.1986-0.8099 0.4633v-0.3971h-0.6803v3.177h0.6803v-1.787c0-0.5295 0.2268-0.8274 0.6479-0.8274 0.1296 0 0.2916 0.0331 0.4212 0.0662l0.1943-0.6619c-0.1296-0.0331-0.3239-0.0331-0.4535-0.0331zm-8.7143 0.331c-0.324-0.2317-0.7775-0.331-1.2634-0.331-0.7775 0-1.2958 0.3971-1.2958 1.0259 0 0.5295 0.3887 0.8274 1.069 0.9267l0.324 0.0331c0.3563 0.0662 0.5507 0.1654 0.5507 0.3309 0 0.2317-0.2592 0.3971-0.7127 0.3971s-0.8099-0.1654-1.0366-0.3309l-0.324 0.5295c0.3563 0.2648 0.8423 0.3971 1.3282 0.3971 0.9071 0 1.4254-0.4302 1.4254-1.0259 0-0.5626-0.4211-0.8604-1.0691-0.9597l-0.3239-0.0331c-0.2916-0.0331-0.5183-0.0993-0.5183-0.2979 0-0.2316 0.2267-0.364 0.5831-0.364 0.3887 0 0.7775 0.1655 0.9718 0.2648l0.2916-0.5626zm18.076-0.331c-0.3888 0-0.6479 0.1986-0.8099 0.4633v-0.3971h-0.6803v3.177h0.6803v-1.787c0-0.5295 0.2268-0.8274 0.6479-0.8274 0.1296 0 0.2916 0.0331 0.4212 0.0662l0.1943-0.6619c-0.1296-0.0331-0.3239-0.0331-0.4535-0.0331zm-8.6819 1.6547c0 0.9598 0.6479 1.6547 1.6521 1.6547 0.4536 0 0.7775-0.0992 1.1015-0.364l-0.324-0.5626c-0.2591 0.1986-0.5183 0.2978-0.8099 0.2978-0.5507 0-0.9394-0.3971-0.9394-1.0259 0-0.5957 0.3887-0.9928 0.9394-1.0259 0.2916 0 0.5508 0.0993 0.8099 0.2979l0.324-0.5626c-0.324-0.2648-0.6479-0.3641-1.1015-0.3641-1.0042 0-1.6521 0.695-1.6521 1.6547zm6.2847 0v-1.5885h-0.6803v0.3971c-0.2268-0.2978-0.5508-0.4633-0.9719-0.4633-0.8747 0-1.555 0.695-1.555 1.6547 0 0.9598 0.6803 1.6547 1.555 1.6547 0.4535 0 0.7775-0.1654 0.9719-0.4633v0.3971h0.6803v-1.5885zm-2.4945 0c0-0.5626 0.3564-1.0259 0.9395-1.0259 0.5507 0 0.9394 0.4302 0.9394 1.0259 0 0.5626-0.3887 1.0259-0.9394 1.0259-0.5831-0.033-0.9395-0.4633-0.9395-1.0259zm-8.1312-1.6547c-0.907 0-1.5549 0.6619-1.5549 1.6547 0 0.9929 0.6479 1.6547 1.5873 1.6547 0.4536 0 0.9071-0.1323 1.2634-0.4302l-0.3239-0.4964c-0.2592 0.1986-0.5831 0.3309-0.9071 0.3309-0.4211 0-0.8422-0.1985-0.9394-0.7611h2.3v-0.2648c0.0324-1.0259-0.5507-1.6878-1.4254-1.6878zm0 0.5957c0.4212 0 0.7127 0.2648 0.7775 0.7612h-1.6197c0.0648-0.4302 0.3563-0.7612 0.8422-0.7612zm16.878 1.059v-2.8461h-0.6803v1.6547c-0.2268-0.2978-0.5507-0.4633-0.9718-0.4633-0.8747 0-1.555 0.695-1.555 1.6547 0 0.9598 0.6803 1.6547 1.555 1.6547 0.4535 0 0.7774-0.1654 0.9718-0.4633v0.3971h0.6803v-1.5885zm-2.4944 0c0-0.5626 0.3563-1.0259 0.9394-1.0259 0.5508 0 0.9395 0.4302 0.9395 1.0259 0 0.5626-0.3887 1.0259-0.9395 1.0259-0.5831-0.033-0.9394-0.4633-0.9394-1.0259zm-22.741 0v-1.5885h-0.6803v0.3971c-0.22677-0.2978-0.55072-0.4633-0.97186-0.4633-0.87467 0-1.555 0.695-1.555 1.6547 0 0.9598 0.6803 1.6547 1.555 1.6547 0.45353 0 0.77748-0.1654 0.97186-0.4633v0.3971h0.6803v-1.5885zm-2.5268 0c0-0.5626 0.35635-1.0259 0.93946-1.0259 0.55072 0 0.93947 0.4302 0.93947 1.0259 0 0.5626-0.38875 1.0259-0.93947 1.0259-0.58311-0.033-0.93946-0.4633-0.93946-1.0259z" fill="#000"/>
<path d="m23.972 2.5482h-10.204v18.731h10.204v-18.731z" fill="#FF5F00"/>
<path d="m14.416 11.914c0-3.8058 1.7494-7.1814 4.4382-9.3657-1.9761-1.5885-4.4706-2.5483-7.1917-2.5483-6.4467 0-11.662 5.3282-11.662 11.914 0 6.5857 5.2156 11.914 11.662 11.914 2.7211 0 5.2156-0.9597 7.1917-2.5483-2.6888-2.1511-4.4382-5.5598-4.4382-9.3656z" fill="#EB001B"/>
<path d="m37.74 11.914c0 6.5858-5.2156 11.914-11.662 11.914-2.7212 0-5.2156-0.9597-7.1917-2.5482 2.7212-2.1843 4.4381-5.5599 4.4381-9.3657 0-3.8058-1.7493-7.1814-4.4381-9.3656 1.9761-1.5885 4.4705-2.5482 7.1917-2.5482 6.4466 0 11.662 5.3613 11.662 11.914z" fill="#F79E1B"/>
</g>
<defs>
<clipPath id="a">
<rect width="37.778" height="30" fill="#fff"/>
</clipPath>
</defs>
</svg>
