<?xml version="1.0" encoding="UTF-8"?>
<svg fill="none" viewBox="0 0 50 15" xmlns="http://www.w3.org/2000/svg">
<g clip-path="url(#b)" clip-rule="evenodd" fill-rule="evenodd">
<path d="m13.473-3.5429e-6v0.0062383c-0.0062 0-1.953-0.0062383-2.4722 1.8715-0.4759 1.7218-1.817 6.4754-1.8541 6.6064h-0.37083s-1.3721-4.8596-1.8541-6.6126c-0.51916-1.8777-2.4722-1.8715-2.4722-1.8715h-4.4499v14.286h4.4499v-8.4841h0.37083l2.5958 8.4841h3.0902l2.5958-8.4778h0.3708v8.4778h4.45v-14.286h-4.45z" fill="#4DB45E"/>
<path d="m29.728 0s-1.3041 0.11853-1.916 1.4972l-3.152 6.9869h-0.3709v-8.4841h-4.4499v14.286h4.2027s1.3659-0.1248 1.9778-1.4972l3.0902-6.9869h0.3708v8.4841h4.45v-14.286h-4.2027z" fill="#4DB45E"/>
<path d="m35.908 6.4878v7.7979h4.45v-4.554h4.8207c2.1014 0 3.8814-1.3537 4.5427-3.2439h-13.813z" fill="#4DB45E"/>
<path d="m45.179 0h-9.8949c0.4944 2.7199 2.5155 4.9033 5.1298 5.6145 0.5933 0.1622 1.2175 0.24954 1.8603 0.24954h7.6267c0.068-0.3244 0.0989-0.65503 0.0989-0.99813 0-2.6887-2.157-4.8659-4.8208-4.8659z" fill="url(#a)"/>
</g>
<defs>
<linearGradient id="a" x1="35.286" x2="50" y1="2.932" y2="2.932" gradientUnits="userSpaceOnUse">
<stop stop-color="#00B4E6" offset=".3"/>
<stop stop-color="#088CCB" offset="1"/>
</linearGradient>
<clipPath id="b">
<rect width="50" height="14.286" fill="#fff"/>
</clipPath>
</defs>
</svg>
