<svg width="1440" height="1024" viewBox="0 0 1440 1024" fill="none" xmlns="http://www.w3.org/2000/svg">
<mask id="mask0" mask-type="alpha" maskUnits="userSpaceOnUse" x="0" y="0" width="1440" height="1024">
<rect width="1440" height="1024" fill="#C4C4C4"/>
</mask>
<g mask="url(#mask0)">
<path d="M1440.52 -4.77725H-9.14258V1033.24H1440.52V-4.77725Z" fill="url(#paint0_radial)"/>
<g opacity="0.22">
<path opacity="0.22" d="M-9.14258 -4.77728L1594.07 -99.6998V31.0939L-9.14258 -4.77728Z" fill="url(#paint1_linear)"/>
<path opacity="0.22" d="M-9.1425 -4.77725L79.2484 1717.16H-42.5234L-9.1425 -4.77725Z" fill="url(#paint2_linear)"/>
<path opacity="0.22" d="M-9.14258 -4.77725L356.289 1674.52L236.373 1697.22L-9.14258 -4.77725Z" fill="url(#paint3_linear)"/>
<path opacity="0.22" d="M-9.14258 -4.77725L622.235 1580.84L507.808 1625.58L-9.14258 -4.77725Z" fill="url(#paint4_linear)"/>
<path opacity="0.22" d="M-9.14258 -4.77725L869.006 1439L763.548 1504.39L-9.14258 -4.77725Z" fill="url(#paint5_linear)"/>
<path opacity="0.22" d="M-9.14258 -4.77725L1089.08 1253.29L995.803 1337.35L-9.14258 -4.77725Z" fill="url(#paint6_linear)"/>
<path opacity="0.22" d="M-9.14258 -4.77725L1275.8 1029.34L1197.52 1129.54L-9.14258 -4.77725Z" fill="url(#paint7_linear)"/>
<path opacity="0.22" d="M-9.14258 -4.77725L1423.47 773.982L1362.59 887.245L-9.14258 -4.77725Z" fill="url(#paint8_linear)"/>
<path opacity="0.22" d="M-9.14258 -4.77725L1527.62 494.968L1485.96 617.869L-9.14258 -4.77725Z" fill="url(#paint9_linear)"/>
<path opacity="0.22" d="M-9.14258 -4.77725L1585.06 200.75L1563.92 329.549L-9.14258 -4.77725Z" fill="url(#paint10_linear)"/>
</g>
</g>
<path d="M348.158 1024H247.223C247.223 1024 223.688 894.976 0.0217285 915.874V805.721C186.399 790.531 219.758 822.798 270.779 915.874C291.016 952.825 320.265 991.196 348.158 1024Z" fill="url(#paint11_linear)"/>
<path d="M880.934 1024H694.466C694.127 1023.81 693.789 1023.6 693.427 1023.42C668.515 1009.56 631.023 1000.1 574.852 1001.19C388.475 1004.99 343.348 961.352 266.828 799.99C190.307 638.674 0 674.11 0 674.11V549C0 549 239.364 549.466 337.453 710.828C435.566 872.19 409.999 980.013 635.63 962.936C750.614 954.222 812.115 970.275 844.774 988.074C872.984 1003.47 879.692 1020.18 880.753 1023.44C880.889 1023.81 880.934 1024 880.934 1024Z" fill="url(#paint12_linear)"/>
<path d="M694.466 1024H348.159C320.288 991.196 291.017 952.848 270.758 915.874C219.737 822.798 186.4 790.531 0 805.721V674.11C0 674.11 190.307 638.674 266.828 800.013C343.348 961.352 388.475 1005.01 574.852 1001.21C631.813 1000.05 669.554 1009.83 694.466 1024Z" fill="url(#paint13_linear)"/>
<defs>
<radialGradient id="paint0_radial" cx="0" cy="0" r="1" gradientUnits="userSpaceOnUse" gradientTransform="translate(333.007 258.89) scale(942.307 1012.1)">
<stop stop-color="white"/>
<stop offset="0.2688" stop-color="#F7F9F9"/>
<stop offset="0.687" stop-color="#E1E7E7"/>
<stop offset="1" stop-color="#CCD7D7"/>
</radialGradient>
<linearGradient id="paint1_linear" x1="1574" y1="586.332" x2="174.576" y2="-403.854" gradientUnits="userSpaceOnUse">
<stop offset="0.0604" stop-color="#6D7C7B" stop-opacity="0.5416"/>
<stop offset="1" stop-color="#6D7C7B" stop-opacity="0"/>
</linearGradient>
<linearGradient id="paint2_linear" x1="-558.92" y1="1695.65" x2="546.258" y2="343.043" gradientUnits="userSpaceOnUse">
<stop offset="0.0604" stop-color="#6D7C7B" stop-opacity="0.5416"/>
<stop offset="1" stop-color="#6D7C7B" stop-opacity="0"/>
</linearGradient>
<linearGradient id="paint3_linear" x1="-275.722" y1="1772.31" x2="579.906" y2="226.35" gradientUnits="userSpaceOnUse">
<stop offset="0.0604" stop-color="#6D7C7B" stop-opacity="0.5416"/>
<stop offset="1" stop-color="#6D7C7B" stop-opacity="0"/>
</linearGradient>
<linearGradient id="paint4_linear" x1="15.5867" y1="1795.08" x2="579.991" y2="103.458" gradientUnits="userSpaceOnUse">
<stop offset="0.0604" stop-color="#6D7C7B" stop-opacity="0.5416"/>
<stop offset="1" stop-color="#6D7C7B" stop-opacity="0"/>
</linearGradient>
<linearGradient id="paint5_linear" x1="306.15" y1="1763.2" x2="548.934" y2="-13.5546" gradientUnits="userSpaceOnUse">
<stop offset="0.0604" stop-color="#6D7C7B" stop-opacity="0.5416"/>
<stop offset="1" stop-color="#6D7C7B" stop-opacity="0"/>
</linearGradient>
<linearGradient id="paint6_linear" x1="587.139" y1="1677.62" x2="494.439" y2="-115.274" gradientUnits="userSpaceOnUse">
<stop offset="0.0604" stop-color="#6D7C7B" stop-opacity="0.5416"/>
<stop offset="1" stop-color="#6D7C7B" stop-opacity="0"/>
</linearGradient>
<linearGradient id="paint7_linear" x1="849.929" y1="1540.89" x2="427.244" y2="-197.385" gradientUnits="userSpaceOnUse">
<stop offset="0.0604" stop-color="#6D7C7B" stop-opacity="0.5416"/>
<stop offset="1" stop-color="#6D7C7B" stop-opacity="0"/>
</linearGradient>
<linearGradient id="paint8_linear" x1="1086.76" y1="1357.26" x2="357.293" y2="-261.402" gradientUnits="userSpaceOnUse">
<stop offset="0.0604" stop-color="#6D7C7B" stop-opacity="0.5416"/>
<stop offset="1" stop-color="#6D7C7B" stop-opacity="0"/>
</linearGradient>
<linearGradient id="paint9_linear" x1="1290.33" y1="1132.24" x2="291.345" y2="-312.837" gradientUnits="userSpaceOnUse">
<stop offset="0.0604" stop-color="#6D7C7B" stop-opacity="0.5416"/>
<stop offset="1" stop-color="#6D7C7B" stop-opacity="0"/>
</linearGradient>
<linearGradient id="paint10_linear" x1="1454.44" y1="872.621" x2="231.245" y2="-358.537" gradientUnits="userSpaceOnUse">
<stop offset="0.0604" stop-color="#6D7C7B" stop-opacity="0.5416"/>
<stop offset="1" stop-color="#6D7C7B" stop-opacity="0"/>
</linearGradient>
<linearGradient id="paint11_linear" x1="409.574" y1="1129.63" x2="88.9646" y2="877.931" gradientUnits="userSpaceOnUse">
<stop offset="0.0019332" stop-color="#D61B33"/>
<stop offset="0.2585" stop-color="#FF2A4E"/>
<stop offset="0.288" stop-color="#E62140"/>
<stop offset="0.3647" stop-color="#AA0B1C"/>
<stop offset="0.4275" stop-color="#AA0B1C"/>
<stop offset="0.4394" stop-color="#B00D20"/>
<stop offset="0.545" stop-color="#E5203E"/>
<stop offset="0.5966" stop-color="#F9274A"/>
<stop offset="0.7609" stop-color="#D01933"/>
<stop offset="0.8627" stop-color="#BC1227"/>
</linearGradient>
<linearGradient id="paint12_linear" x1="0.00225857" y1="786.493" x2="880.936" y2="786.493" gradientUnits="userSpaceOnUse">
<stop offset="0.0019332" stop-color="#D6DFDF"/>
<stop offset="0.3261" stop-color="#F8F9F9"/>
<stop offset="0.3476" stop-color="#EBEFEF"/>
<stop offset="0.4565" stop-color="#AFC0C0"/>
<stop offset="0.5588" stop-color="#C7D3D3"/>
<stop offset="0.6643" stop-color="#DBE3E3"/>
<stop offset="0.7487" stop-color="#C8D4D4"/>
<stop offset="0.8579" stop-color="#B4C4C4"/>
</linearGradient>
<linearGradient id="paint13_linear" x1="0.00225857" y1="847.4" x2="694.462" y2="847.4" gradientUnits="userSpaceOnUse">
<stop offset="0.0019332" stop-color="#0271B7"/>
<stop offset="0.3261" stop-color="#16B4E5"/>
<stop offset="0.3817" stop-color="#0F84BC"/>
<stop offset="0.4565" stop-color="#054889"/>
<stop offset="0.5812" stop-color="#026DAF"/>
<stop offset="0.6643" stop-color="#0081C3"/>
<stop offset="0.7755" stop-color="#0360A1"/>
<stop offset="0.8579" stop-color="#054C8D"/>
</linearGradient>
</defs>
</svg>
