<?xml version="1.0" encoding="UTF-8"?>
<svg fill="none" viewBox="0 0 50 17" xmlns="http://www.w3.org/2000/svg">
<g clip-path="url(#b)">
<path d="m25.859 5.1987c-0.0285 2.2652 2.0044 3.5293 3.5358 4.2808 1.5735 0.77114 2.102 1.2656 2.096 1.9551-0.012 1.0555-1.2552 1.5212-2.4188 1.5394-2.0299 0.0317-3.21-0.552-4.1484-0.9935l-0.7312 3.4461c0.9414 0.437 2.6846 0.8181 4.4923 0.8347 4.243 0 7.0191-2.1094 7.0341-5.3801 0.0165-4.1508-5.7009-4.3806-5.6618-6.236 0.0135-0.5625 0.5465-1.1628 1.7146-1.3155 0.578-0.07712 2.174-0.13609 3.9832 0.70313l0.7102-3.3342c-0.9729-0.35686-2.2236-0.6986-3.7806-0.6986-3.9937 0-6.8029 2.1381-6.8254 5.1987zm17.43-4.9114c-0.7747 0-1.4278 0.45515-1.7191 1.1538l-6.0612 14.575h4.24l0.8438-2.3483h5.1813l0.4895 2.3483h3.737l-3.2611-15.729h-3.4502zm0.5931 4.249 1.2236 5.9064h-3.3512l2.1276-5.9064zm-23.164-4.249-3.3422 15.729h4.0403l3.3407-15.729h-4.0388zm-5.9771 0-4.2055 10.706-1.7011-9.103c-0.19968-1.0161-0.98792-1.6028-1.8632-1.6028h-6.875l-0.09609 0.45666c1.4113 0.30847 3.0148 0.80596 3.9862 1.3382 0.59456 0.32511 0.76422 0.60939 0.9594 1.3821l3.222 12.552h4.27l6.5461-15.729h-4.2429z" fill="url(#a)"/>
</g>
<defs>
<linearGradient id="a" x1="22.987" x2="23.461" y1="16.588" y2="-.1129" gradientUnits="userSpaceOnUse">
<stop stop-color="#222357" offset="0"/>
<stop stop-color="#254AA5" offset="1"/>
</linearGradient>
<clipPath id="b">
<rect width="50" height="16.326" fill="#fff"/>
</clipPath>
</defs>
</svg>
